<?xml version="1.0" encoding="UTF-8"?>
<svg id="_图层_1" xmlns="http://www.w3.org/2000/svg" xmlns:xlink="http://www.w3.org/1999/xlink" version="1.1" viewBox="0 0 1603 785">
  <!-- Generator: Adobe Illustrator 29.3.0, SVG Export Plug-In . SVG Version: 2.1.0 Build 146)  -->
  <defs>
    <style>
      .st0 {
        isolation: isolate;
        opacity: .1;
      }

      .st1 {
        fill: #42b983;
      }

      .st2 {
        fill: #d6d6e3;
      }

      .st3 {
        fill: #ffb6b6;
      }

      .st4 {
        fill: #010102;
      }

      .st5 {
        fill: #090814;
      }

      .st6 {
        fill: #f2f2f2;
      }
    </style>
  </defs>
  <rect class="st2" x="1373.2" y="613.1" width="21.5" height="71.1"/>
  <polygon class="st2" points="1250.4 530.2 1232 542.5 1225.9 560.9 1462.2 643.8 1471.5 610 1250.4 530.2"/>
  <polygon class="st6" points="1316.4 163.4 1232 542.5 1471.5 610 1540.5 117.4 1316.4 163.4"/>
  <path class="st2" d="M1528.4,129l-218,43c-5.3,1-10-3.5-9.2-8.8l1-6.8c.5-3.2,2.9-5.8,6.1-6.5l220.5-46.7c5.9-1.2,10.9,4.4,9,10.1l-3.5,10.4c-.9,2.7-3.1,4.6-5.9,5.2h0Z"/>
  <rect class="st1" x="1363.5" y="236" width="2.6" height="111.8" transform="translate(1070.5 1656.2) rotate(-89.9)"/>
  <rect class="st1" x="1367.8" y="235.8" width="95.5" height="2.6" transform="translate(-16.9 146.8) rotate(-5.9)"/>
  <path class="st1" d="M1072.4,354.3l-33.5,114.4c-4.4,15.2,6.1,30.6,21.9,32l36.5,3.2-24.9-149.6h0Z"/>
  <path class="st0" d="M1072.4,354.3l-33.5,114.4c-4.4,15.2,6.1,30.6,21.9,32l36.5,3.2-24.9-149.6h0Z"/>
  <path class="st5" d="M1335.7,302.9v-11.8s79.8-5.1,88.4-2.4c0,0,3.5,6-14.4,6.9,0,0-55.8,8.4-74,7.2h0Z"/>
  <path class="st3" d="M1376.1,333.2l-44.8,74-21.1-26.7,41.2-64.5c-1.5-7.5.3-16.2,5.5-23.7,9.2-13.2,25.4-17.7,36.3-10.1s12.3,24.4,3.1,37.6c-5.2,7.5-12.8,12.2-20.3,13.4h.1Z"/>
  <path class="st5" d="M1097,512.7l-5.4,18.3.2,18.5s-35.4,42.5-22.3,134.5l165.7-2.1-19.7-148-118.4-21.2h0Z"/>
  <path class="st3" d="M1115.7,259.3c0-25.9,21-47,47-47s47,21,47,47-13.8,38.8-32.9,44.8l-7,5.6,12.6,44-14.7,10.4-46.3-38.6s10-12.7,15.4-27.1c-12.7-8.4-21-22.8-21-39.2h0Z"/>
  <path class="st1" d="M1342.1,330.9c-16.6-.3-47.2,53-47.2,53l-25.2-8.9-51.8-18.3-39.7-16.3.2,1.2c-.2-.4-.3-.8-.5-1.1-4.2-8.6-16.3-18.7-50.7-16.7l-16.2,12.8-2.2,1.8s-10.2-.9-20.4,3.2c-7.4,3-14.7,8.5-18.2,18.8-1.8,5.3-1.8,16.4-.7,30.4,3.9,50.7,22.2,158.5,22.2,158.5l115.4-15.3,8.5.2s1-11.6,1.9-26.8c.6-8.9,1.1-19.1,1.4-28.8.2-7.2.3-14.1,0-20.2v-1.1c-.3-11.1-1.5-19.2-3.9-20.1,0,0,7.5-.2,18.2-.6,26-1,71.4-3.2,77.8-6.7,9.1-5,57.1-71.7,57.1-71.7,0,0-9.3-26.7-25.9-27h0l-.2-.3Z"/>
  <path class="st4" d="M1211,262.8c-3.5-17.4-5.3-26.3-18.1-38.5-3.1.4.8,16.3-16.1,38.4-24.5,32.1-22.1,2.7-29.3,12.6-1.6,2.1-1.9,9.9-1.4,12.6,2,10.5,14.1.2,1.4,36.3-1.9,2.8-4.1,2.1-7,2.1s1.2-.3-4.2-1.4c-2.6-.5-6.2-1.2-10.5-1.9-50.4-8.5-68.2-72.1-29.2-105.2,8.9-7.5,17.6-13.2,25.1-15.9,22.7-8,74.6-2.8,84.5,23.1,4.7,12.3,6.3,25,4.9,37.8h-.1Z"/>
  <circle class="st4" cx="1107.2" cy="328.9" r="35.9"/>
  <rect class="st2" x="202.6" y="608" width="21.5" height="77.6"/>
  <polygon class="st2" points="346.9 525.1 365.3 537.4 371.4 555.8 135.1 638.7 125.9 604.9 346.9 525.1"/>
  <polygon class="st6" points="280.9 158.3 365.3 537.4 125.9 604.9 56.8 112.2 280.9 158.3"/>
  <path class="st2" d="M68.9,123.9l218,43c5.3,1,10-3.5,9.2-8.8l-1-6.8c-.5-3.2-2.9-5.8-6.1-6.5l-220.5-46.7c-5.9-1.2-10.9,4.4-9,10.1l3.5,10.4c.9,2.7,3.1,4.6,5.9,5.2h0Z"/>
  <path class="st1" d="M236.8,258.6c-6,0-12-2.5-17.3-7.3-6.4-5.8-10.9-14.3-12.8-23.8-3.9-19.9,5.1-38.4,20-41.4,7.3-1.4,14.9,1,21.4,6.9,6.4,5.8,10.9,14.3,12.8,23.8,3.9,19.9-5.1,38.4-20,41.4-1.4.3-2.7.4-4.1.4h0ZM230.8,188.3c-1.2,0-2.4.1-3.6.3-13.5,2.7-21.5,19.8-17.9,38.3,1.8,9,6,17,12,22.4,5.8,5.3,12.6,7.6,19.1,6.3,13.5-2.7,21.5-19.8,17.9-38.3h0c-1.8-9-6-17-12-22.4-4.8-4.4-10.2-6.6-15.5-6.6h0Z"/>
  <rect class="st1" x="246.5" y="209.8" width="2.6" height="28.7" transform="translate(-19.5 424.7) rotate(-79)"/>
  <path class="st5" d="M346.7,238.3v-11.8s-79.8-5.1-88.4-2.4c0,0-3.5,6,14.4,6.9,0,0,55.8,8.4,74,7.2h0Z"/>
  <path class="st3" d="M331.1,241.5l50.7,76.4-35.1,8.1-43.2-68.7c-7.9-2-15.4-7.6-20.2-16.1-8.5-14.7-5.4-32.4,6.8-39.4,12.2-7,29-.7,37.4,14,4.8,8.4,5.9,17.8,3.7,25.6h0Z"/>
  <path class="st3" d="M582.9,252.9c0-33.5-27.2-60.7-60.7-60.7s-60.7,27.2-60.7,60.7,17.9,50.2,42.5,57.9l9.1,7.3-16.3,56.9,18.9,13.4,59.8-49.9s-12.9-16.5-19.9-35c16.4-10.9,27.2-29.5,27.2-50.6h.1Z"/>
  <path class="st3" d="M411.3,571.9l71.4-57.5,11.3,34.2-64.4,49.3c-1.3,8-6.2,16-14.1,21.6-13.9,9.8-31.7,8.4-39.8-3.1-8.1-11.5-3.4-28.8,10.5-38.5,7.9-5.6,17.2-7.5,25.1-6h0Z"/>
  <polygon class="st1" points="595.5 485.9 595.6 486.2 434.1 599.7 411.1 557.8 488.6 478.9 595.5 485.9"/>
  <polygon class="st0" points="595.5 485.9 595.6 486.2 434.1 599.7 411.1 557.8 488.6 478.9 595.5 485.9"/>
  <polygon class="st5" points="600.4 575.5 467.5 606.7 470.1 682.9 616.1 682.9 600.4 575.5"/>
  <path class="st1" d="M561.8,316.3s-24.4,4.4-50.5,20.1c-26.2,15.7-46.4,85.5-46.4,85.5,0,0-21.5,165.2,2.2,184.4l133.3-30.8s17.4-13.6,24.6-60.6c6.9-45.2-20.3-202-63.2-198.5h0Z"/>
  <path class="st1" d="M541.8,352.3l-96.4-7.2-102.1-82.2s-42.5,19.2-38.4,29.3,51.4,95.3,51.4,95.3c0,0,140.3,51.8,157.2,54s28.3-89.1,28.3-89.1h0Z"/>
  <path class="st5" d="M545.4,297.7l18.7,1.7c.7,3.8,25.3-28.4,25.9-48.3,0-4.7,4-59-48.2-71.7s-93.4,26.1-83.5,31.6,37.1,9.2,37.1,9.2c0,0-20.3,33.2,5.1,44.1,0,0,1,16.3,8.7,17s27.9-10.7,31.9,2.9l4,13.6"/>
  <rect class="st1" x="169.5" y="358" width="109.3" height="2.6" transform="translate(-31.1 21.4) rotate(-5.1)"/>
</svg>